<svg id="Layer_1" data-name="Layer 1" xmlns="http://www.w3.org/2000/svg" viewBox="0 0 512 449.42"><defs><style>.cls-1{fill:#fff;}</style></defs><title>noun_Cough_678013</title><path class="cls-1" d="M70.55,480.71c9.56-26.7,10.22-54,12.79-81.2-9.77,1.47-13.07-.25-16.49-9.26a91,91,0,0,1-4.43-15.84c-2.16-11.82-7.76-21.76-15-31.14C0.78,283.1-11.23,216.39,10.39,143.6c6.77-22.79,20.68-41.11,38-56.92,32.8-29.86,71.85-46.14,115.36-52.32,35-5,69.81-4.6,103.82,6.48,18.72,6.1,36.48,14.31,51.73,27,10.74,9,19,19.57,19.93,34.37,0.12,1.84,1.25,3.7,2.21,5.38,17.16,30.15,22.8,62.65,18.69,96.76-2,16.31.28,30.47,10.79,43.93,8.73,11.18,15.59,24,22.29,36.54,6.88,12.93,4.36,18.45-9,24-2,.84-4.1,1.59-6.1,2.49-10.58,4.73-13,9.54-10.79,20.83,1.83,9.12.48,11.17-8.48,13.65-5.32,1.47-10.56,3.23-15.83,4.86l-1.13,3.11c4.21,3.48,8.7,6.67,12.58,10.49,6.3,6.21,6.27,10.34-1.18,14.78-9.48,5.66-12.53,13.07-9.17,23.3,7.21,22-12.55,32.67-29.4,29.12-7.69-1.62-15.14-4.51-22.56-7.21-21.93-8-30.93-2.49-31.53,20.73-0.3,11.77,1.42,23.6,2.25,35.73H70.55Z" transform="translate(0 -31.29)"/><path class="cls-1" d="M377.14,346.06c2.14-.25,4.27-0.57,6.42-0.74q55.89-4.23,111.79-8.4a35.65,35.65,0,0,1,8.52.2c5.13,0.87,8,3.74,8.12,9.44,0.23,14.44-3.13,17.62-17.51,15.84Q439.22,355.53,384,348.62c-2.34-.29-4.65-0.79-7-1.2Z" transform="translate(0 -31.29)"/><path class="cls-1" d="M371.18,356.12L421.06,373q30.61,10.39,61.2,20.83A47.72,47.72,0,0,1,490.2,397c6,3.35,7.2,7.43,4.46,13.76-5.36,12.38-10,13.69-21.64,6.85-31.86-18.69-63.82-37.2-95.73-55.81-2.25-1.31-4.38-2.82-6.56-4.23Z" transform="translate(0 -31.29)"/><path class="cls-1" d="M366.65,365.69c1.66,1.35,3.4,2.62,5,4.07q41.41,38.68,82.77,77.42c10.25,9.6,8.63,19.12-4.53,24.32-2.5,1-6.34-.35-9.15-1.57-2-.87-3.61-3.15-5-5.09q-33.81-47.15-67.51-94.39c-0.87-1.22-1.59-2.56-2.37-3.85Z" transform="translate(0 -31.29)"/></svg>